<?xml version="1.0" encoding="UTF-8"?>
<svg width="90" height="32" version="1.1" viewBox="0 0 90 32" xmlns="http://www.w3.org/2000/svg" xmlns:cc="http://creativecommons.org/ns#" xmlns:dc="http://purl.org/dc/elements/1.1/" xmlns:rdf="http://www.w3.org/1999/02/22-rdf-syntax-ns#">
 <metadata>
  <rdf:RDF>
   <cc:Work rdf:about="">
    <dc:format>image/svg+xml</dc:format>
    <dc:type rdf:resource="http://purl.org/dc/dcmitype/StillImage"/>
    <dc:title/>
   </cc:Work>
  </rdf:RDF>
 </metadata>
 <path transform="translate(-329 -10)" d="m418 26v4.11h-7.3v1.9h3.68c1.97 0 4.07 1.47 4.2 3.97l0.00591 0.237v1.58c-0.0878 3.01-2.54 4.14-4.07 4.2l-0.132 0.00273h-7.39v-4.09l7.48-0.0226v-1.99l-1.75 0.0026-0.0448 3.79e-4 -0.0558 7.95e-4 -0.0164 8.26e-4c5.18e-4 4.17e-4 0.0132 8.38e-4 0.0343 0.00125l0.0522 8.13e-4c0.0305 3.98e-4 0.0669 7.8e-4 0.105 0.00114l0.0781 6.71e-4 -0.155-4.7e-4c-0.314-0.00156-0.852-0.00411-1.73-0.00801-1.78 0-4.08-1.34-4.22-3.95l-0.00652-0.249v-1.42c0-2.7 2.28-4.18 4.07-4.27l0.161-0.00387zm-18.7 0v11.9h6.17v4.14h-10.7v-16zm-6.44 0v16h-4.59v-16zm-10.8 0c1.06 0 4.05 0.731 4.2 3.95l0.00577 0.253v11.8h-4.27v-2.83h-4.14v2.83h-4.41v-11.8c0-1.32 1-4.05 3.95-4.2l0.257-0.0065zm-24.1-0.00276 8.58 5.75e-4c0.179 0.0197 4.75 0.57 4.75 5.54s-3.78 5.39-3.92 5.41l-0.00447 4.22e-4 5.01 5.05h-6.37l-3.73-3.86v3.86h-4.31zm22.4-2.7 0.0334 0.0329s-0.384 0.271-0.791 0.61c-12.8-9.49-20.7-5.02-23.1-3.82-11.2 6.24-7.95 21.6-7.89 21.9l0.00101 0.00465h-17.9s0.678-6.69 5.42-14.6c4.75-7.91 12.8-13.9 19.4-14.5 12.7-1.27 24.1 9.71 24.8 10.4zm-31.1 14.2 2.44 0.881c0.113 0.885 0.273 1.72 0.441 2.49l0.101 0.45-2.71-0.972c-0.113-0.678-0.226-1.65-0.271-2.85zm31.5-7.66h-1.51c-1.13 0-1.33 0.59-1.37 0.805l-0.00725 0.0563-9.06e-4 0.0152-1.3e-4 3.92h4.14l-3.16e-4 -3.92c-0.00494-0.0796-0.0833-0.875-1.24-0.875zm-50.5 0.339 2.6 0.949c-0.316 0.732-0.719 1.67-1.01 2.41l-0.118 0.303-2.6-0.949c0.226-0.61 0.701-1.74 1.13-2.71zm35.4-0.143h-3.46v3.66h3.43s0.988-0.382 0.988-1.84-0.965-1.82-0.965-1.82zm-15.4-0.761 1.63 1.29c-0.181 0.705-0.318 1.41-0.412 2.12l-0.0624 0.529-1.83-1.45c0.181-0.814 0.384-1.65 0.678-2.49zm4-6.31 1.02 1.54c-0.398 0.416-0.767 0.832-1.1 1.27l-0.238 0.334-1.08-1.63c0.407-0.52 0.881-1.04 1.4-1.51zm-16.2-3.35 1.6 1.4c-0.407 0.424-0.801 0.873-1.17 1.33l-0.364 0.457-1.74-1.49c0.52-0.565 1.08-1.13 1.67-1.7zm22.4-0.0904 0.497 1.49c-0.524 0.163-1.05 0.369-1.57 0.607l-0.393 0.184-0.52-1.56c0.565-0.249 1.22-0.497 1.99-0.723zm5.29-0.542c0.579 0.0362 1.17 0.101 1.78 0.207l0.458 0.087-0.0904 1.4c-0.597-0.127-1.19-0.21-1.79-0.25l-0.448-0.0217zm-18.6-6.24 1.02 1.56c-0.441 0.22-0.869 0.466-1.3 0.728l-0.437 0.267-1.04-1.58c0.61-0.362 1.2-0.678 1.76-0.972zm18.6-0.859c1.34 0.384 1.92 0.647 2.16 0.771l0.0373 0.0203-0.0904 1.51c-0.482-0.196-0.964-0.382-1.45-0.558l-0.739-0.256zm-8.63-1.33 0.452 1.38h-0.226c-0.492 0-0.983 0.0127-1.47 0.0477l-0.492 0.0427-0.429-1.33c0.746-0.0904 1.47-0.136 2.17-0.136z" fill="#d30001"/>
</svg>
